<svg xmlns="http://www.w3.org/2000/svg" xmlns:xlink="http://www.w3.org/1999/xlink" width="359" zoomAndPan="magnify" viewBox="0 0 269.25 73.499998" height="98" preserveAspectRatio="xMidYMid meet" version="1.0"><defs><g/><clipPath id="3a25efc760"><path d="M 0.773438 0.710938 L 260.6875 0.710938 L 260.6875 72.222656 L 0.773438 72.222656 Z M 0.773438 0.710938 " clip-rule="nonzero"/></clipPath><clipPath id="3b94c11a3e"><path d="M 7.796875 7.4375 L 130.734375 7.4375 L 130.734375 65.566406 L 7.796875 65.566406 Z M 7.796875 7.4375 " clip-rule="nonzero"/></clipPath><clipPath id="eb5d17cd59"><path d="M 7.796875 7.4375 L 130.710938 7.4375 L 130.710938 65.542969 L 7.796875 65.542969 Z M 7.796875 7.4375 " clip-rule="nonzero"/></clipPath></defs><g clip-path="url(#3a25efc760)"><path stroke-linecap="butt" transform="matrix(0.744932, 0, 0, 0.744932, 0.774815, 0.710621)" fill="none" stroke-linejoin="miter" d="M -0.00184872 0.0004248 L 348.907758 0.0004248 L 348.907758 96.092411 L -0.00184872 96.092411 Z M -0.00184872 0.0004248 " stroke="#000000" stroke-width="6" stroke-opacity="1" stroke-miterlimit="4"/></g><g clip-path="url(#3b94c11a3e)"><path fill="#000000" d="M 7.796875 7.4375 L 130.734375 7.4375 L 130.734375 65.566406 L 7.796875 65.566406 Z M 7.796875 7.4375 " fill-opacity="1" fill-rule="nonzero"/></g><g clip-path="url(#eb5d17cd59)"><path stroke-linecap="butt" transform="matrix(0.744932, 0, 0, 0.744932, 7.79875, 7.436559)" fill="none" stroke-linejoin="miter" d="M -0.00251653 0.00126342 L 165.023998 0.00126342 L 165.023998 78.033724 L -0.00251653 78.033724 Z M -0.00251653 0.00126342 " stroke="#000000" stroke-width="6" stroke-opacity="1" stroke-miterlimit="4"/></g><g fill="#ffffff" fill-opacity="1"><g transform="translate(32.426986, 43.323547)"><g><path d="M 8.203125 -7.046875 C 7.929688 -7.023438 7.640625 -7.015625 7.328125 -7.015625 C 7.015625 -7.015625 6.554688 -7.035156 5.953125 -7.078125 L 5.953125 0 L 2.34375 0 L 2.34375 -18.203125 C 3.613281 -18.367188 5.175781 -18.453125 7.03125 -18.453125 C 9.550781 -18.453125 11.429688 -17.984375 12.671875 -17.046875 C 13.910156 -16.117188 14.53125 -14.6875 14.53125 -12.75 C 14.53125 -11.238281 13.960938 -9.945312 12.828125 -8.875 C 12.453125 -8.53125 12.023438 -8.234375 11.546875 -7.984375 L 14.328125 -2.125 C 14.867188 -0.914062 15.285156 -0.195312 15.578125 0.03125 L 15.515625 0.09375 C 14.628906 -0.0507812 13.242188 -0.046875 11.359375 0.109375 Z M 7.28125 -15.234375 C 6.820312 -15.234375 6.378906 -15.210938 5.953125 -15.171875 L 5.953125 -9.96875 C 6.398438 -9.90625 6.921875 -9.875 7.515625 -9.875 C 8.117188 -9.875 8.625 -9.925781 9.03125 -10.03125 C 9.4375 -10.132812 9.789062 -10.296875 10.09375 -10.515625 C 10.738281 -10.992188 11.0625 -11.710938 11.0625 -12.671875 C 11.0625 -13.640625 10.722656 -14.316406 10.046875 -14.703125 C 9.421875 -15.054688 8.5 -15.234375 7.28125 -15.234375 Z M 7.28125 -15.234375 "/></g></g></g><g fill="#ffffff" fill-opacity="1"><g transform="translate(50.792901, 43.323547)"><g><path d="M 6.140625 0 C 6.253906 -0.351562 6.3125 -1.179688 6.3125 -2.484375 L 6.3125 -6.265625 C 4.75 -9.722656 3.75 -11.878906 3.3125 -12.734375 C 2.875 -13.597656 2.503906 -14.28125 2.203125 -14.78125 C 1.265625 -16.375 0.695312 -17.285156 0.5 -17.515625 C 0.300781 -17.753906 0.101562 -17.953125 -0.09375 -18.109375 L 4.609375 -18.109375 C 4.703125 -17.929688 4.835938 -17.664062 5.015625 -17.3125 L 8.3125 -10.34375 C 8.457031 -10.726562 8.640625 -11.15625 8.859375 -11.625 C 10.835938 -15.882812 11.835938 -18.046875 11.859375 -18.109375 L 16.359375 -18.109375 C 15.890625 -17.734375 15.320312 -16.953125 14.65625 -15.765625 C 14.445312 -15.410156 14.238281 -15.007812 14.03125 -14.5625 L 10.953125 -8.140625 C 10.609375 -7.367188 10.3125 -6.675781 10.0625 -6.0625 L 10.0625 -2.15625 C 10.0625 -1.25 10.117188 -0.53125 10.234375 0 Z M 6.140625 0 "/></g></g></g><g fill="#ffffff" fill-opacity="1"><g transform="translate(69.158815, 43.323547)"><g><path d="M 3.65625 0.109375 C 2.875 0.0351562 1.960938 0 0.921875 0 L -0.15625 0 L 5.78125 -16.59375 C 6.039062 -17.34375 6.171875 -17.773438 6.171875 -17.890625 C 6.171875 -18.015625 6.164062 -18.09375 6.15625 -18.125 L 6.171875 -18.15625 C 6.753906 -18.125 7.378906 -18.109375 8.046875 -18.109375 C 8.585938 -18.109375 9.242188 -18.117188 10.015625 -18.140625 L 10.015625 -18.109375 C 10.003906 -18.078125 10 -18.03125 10 -17.96875 C 10 -17.789062 10.132812 -17.332031 10.40625 -16.59375 L 16.453125 0.046875 C 16.265625 0.0351562 16.050781 0.03125 15.8125 0.03125 C 15.8125 0.03125 15.578125 0.0195312 15.109375 0 C 14.878906 0 14.671875 0 14.484375 0 L 12.375 0 L 11.09375 -3.921875 L 4.9375 -3.921875 Z M 10.03125 -7.1875 L 7.984375 -13.515625 L 5.984375 -7.1875 Z M 10.03125 -7.1875 "/></g></g></g><g fill="#ffffff" fill-opacity="1"><g transform="translate(87.579199, 43.323547)"><g><path d="M 2.46875 0 C 2.519531 -0.3125 2.546875 -0.644531 2.546875 -1 L 2.546875 -18.109375 L 5.265625 -18.109375 L 12.484375 -6.75 L 12.484375 -17.1875 C 12.484375 -17.6875 12.441406 -17.992188 12.359375 -18.109375 L 16.03125 -18.109375 C 15.976562 -17.742188 15.953125 -17.347656 15.953125 -16.921875 L 15.953125 0 L 13.125 0 L 6.015625 -10.90625 L 6.015625 0 Z M 2.46875 0 "/></g></g></g><g fill="#000000" fill-opacity="1"><g transform="translate(162.16123, 43.323547)"><g><path d="M 13.78125 -1.328125 C 13.113281 -0.796875 12.25 -0.382812 11.1875 -0.09375 C 10.125 0.195312 8.816406 0.34375 7.265625 0.34375 C 5.722656 0.34375 4.082031 0.203125 2.34375 -0.078125 L 2.34375 -18.03125 C 4.101562 -18.3125 5.628906 -18.453125 6.921875 -18.453125 C 8.210938 -18.453125 9.273438 -18.328125 10.109375 -18.078125 C 10.941406 -17.835938 11.617188 -17.507812 12.140625 -17.09375 C 13.179688 -16.28125 13.703125 -15.234375 13.703125 -13.953125 C 13.703125 -12.671875 13.234375 -11.609375 12.296875 -10.765625 C 13.398438 -10.410156 14.257812 -9.753906 14.875 -8.796875 C 15.425781 -7.929688 15.703125 -6.972656 15.703125 -5.921875 C 15.703125 -4.878906 15.550781 -3.984375 15.25 -3.234375 C 14.945312 -2.492188 14.457031 -1.859375 13.78125 -1.328125 Z M 5.953125 -11.265625 C 6.328125 -11.203125 6.800781 -11.171875 7.375 -11.171875 C 7.945312 -11.171875 8.414062 -11.242188 8.78125 -11.390625 C 9.15625 -11.535156 9.441406 -11.722656 9.640625 -11.953125 C 9.960938 -12.328125 10.125 -12.847656 10.125 -13.515625 C 10.125 -14.898438 9.3125 -15.59375 7.6875 -15.59375 C 6.988281 -15.59375 6.410156 -15.566406 5.953125 -15.515625 Z M 7.96875 -8.34375 C 7.207031 -8.34375 6.535156 -8.296875 5.953125 -8.203125 L 5.953125 -2.84375 C 6.585938 -2.675781 7.253906 -2.59375 7.953125 -2.59375 C 8.648438 -2.59375 9.265625 -2.675781 9.796875 -2.84375 C 10.328125 -3.019531 10.773438 -3.253906 11.140625 -3.546875 C 11.878906 -4.140625 12.25 -4.898438 12.25 -5.828125 C 12.25 -7.503906 10.820312 -8.34375 7.96875 -8.34375 Z M 7.96875 -8.34375 "/></g></g></g><g fill="#000000" fill-opacity="1"><g transform="translate(178.46124, 43.323547)"><g><path d="M 5 0 C 3.664062 0 2.78125 0.0234375 2.34375 0.078125 L 2.34375 -18.1875 C 2.5625 -18.132812 3.007812 -18.109375 3.6875 -18.109375 C 4.375 -18.109375 5.175781 -18.128906 6.09375 -18.171875 L 6.09375 -3.265625 L 8.90625 -3.265625 C 9.71875 -3.265625 10.375 -3.289062 10.875 -3.34375 C 10.800781 -1.21875 10.765625 -0.117188 10.765625 -0.046875 L 10.765625 0.09375 C 9.878906 0.03125 8.390625 0 6.296875 0 Z M 5 0 "/></g></g></g><g fill="#000000" fill-opacity="1"><g transform="translate(190.104105, 43.323547)"><g><path d="M 3.828125 -2.15625 C 3.003906 -2.945312 2.351562 -3.894531 1.875 -5 C 1.394531 -6.101562 1.15625 -7.316406 1.15625 -8.640625 C 1.15625 -9.960938 1.375 -11.210938 1.8125 -12.390625 C 2.257812 -13.566406 2.894531 -14.601562 3.71875 -15.5 C 4.550781 -16.40625 5.550781 -17.125 6.71875 -17.65625 C 7.894531 -18.1875 9.207031 -18.453125 10.65625 -18.453125 C 13.164062 -18.453125 15.28125 -17.660156 17 -16.078125 C 18.832031 -14.390625 19.75 -12.113281 19.75 -9.25 C 19.75 -6.46875 18.804688 -4.15625 16.921875 -2.3125 C 15.753906 -1.175781 14.367188 -0.394531 12.765625 0.03125 C 11.972656 0.238281 11.046875 0.34375 9.984375 0.34375 C 8.929688 0.34375 7.847656 0.125 6.734375 -0.3125 C 5.617188 -0.75 4.648438 -1.363281 3.828125 -2.15625 Z M 4.9375 -8.828125 C 4.9375 -7.984375 5.078125 -7.207031 5.359375 -6.5 C 5.640625 -5.789062 6.03125 -5.179688 6.53125 -4.671875 C 7.59375 -3.597656 8.960938 -3.0625 10.640625 -3.0625 C 12.222656 -3.0625 13.5 -3.578125 14.46875 -4.609375 C 15.445312 -5.671875 15.9375 -7.117188 15.9375 -8.953125 C 15.9375 -10.671875 15.46875 -12.109375 14.53125 -13.265625 C 13.519531 -14.492188 12.140625 -15.109375 10.390625 -15.109375 C 8.691406 -15.109375 7.34375 -14.484375 6.34375 -13.234375 C 5.40625 -12.066406 4.9375 -10.597656 4.9375 -8.828125 Z M 4.9375 -8.828125 "/></g></g></g><g fill="#000000" fill-opacity="1"><g transform="translate(211.006792, 43.323547)"><g><path d="M 17.265625 -10.921875 C 17.097656 -10.609375 17.015625 -9.867188 17.015625 -8.703125 L 17.015625 -4.484375 C 17.015625 -3.203125 16.347656 -2.085938 15.015625 -1.140625 C 13.648438 -0.148438 11.972656 0.34375 9.984375 0.34375 C 7.222656 0.34375 5.019531 -0.523438 3.375 -2.265625 C 1.789062 -3.910156 1 -6.015625 1 -8.578125 C 1 -11.304688 1.804688 -13.578125 3.421875 -15.390625 C 5.222656 -17.429688 7.707031 -18.453125 10.875 -18.453125 C 12.988281 -18.453125 14.664062 -18.046875 15.90625 -17.234375 L 15.6875 -13.203125 L 15.578125 -13.1875 C 15.265625 -13.738281 14.640625 -14.191406 13.703125 -14.546875 C 12.804688 -14.878906 11.867188 -15.046875 10.890625 -15.046875 C 9.921875 -15.046875 9.070312 -14.890625 8.34375 -14.578125 C 7.613281 -14.273438 6.992188 -13.835938 6.484375 -13.265625 C 5.410156 -12.085938 4.875 -10.539062 4.875 -8.625 C 4.875 -6.9375 5.347656 -5.585938 6.296875 -4.578125 C 7.234375 -3.566406 8.445312 -3.0625 9.9375 -3.0625 C 11.582031 -3.0625 12.691406 -3.488281 13.265625 -4.34375 C 13.441406 -4.613281 13.53125 -4.921875 13.53125 -5.265625 L 13.53125 -7.53125 L 11.78125 -7.53125 C 10.832031 -7.53125 10.316406 -7.445312 10.234375 -7.28125 L 10.203125 -7.296875 L 10.078125 -10.859375 C 10.328125 -10.785156 11.359375 -10.75 13.171875 -10.75 L 14.78125 -10.75 C 15.78125 -10.75 16.597656 -10.816406 17.234375 -10.953125 Z M 17.265625 -10.921875 "/></g></g></g></svg>